Simulation
nRows=36
nColumns=15
endheader
time  TH_x TH_y TH_z SC_y  SC_z  SC_x  AC_y  AC_z  AC_x  GH_y  GH_z  GH_yy  EL_x  PS_y
8.043  0.000000  0.000000  0.000000  -21.35666561135481  2.4836291280228484  -5.6588412870689195  56.65769161514768  11.735377461911828  5.116777167689872  2.886244020380307  6.409821436605681  52.480057936113724  17.27193219794547  120.000000
8.09662  0.000000  0.000000  0.000000  -20.884537857729228  2.070501018164942  -7.288438169659008  56.2382344428993  11.671426485993054  5.508170829158691  6.024349622782719  8.362563375723337  49.01008711272474  16.66968651344083  120.000000
8.15024  0.000000  0.000000  0.000000  -20.349128978146382  1.6991928567690673  -8.976425945851133  55.872999379418985  11.757571168831204  6.058878936985904  8.922399363211394  10.561505999582284  45.536459759371525  15.916054626506972  120.000000
8.20386  0.000000  0.000000  0.000000  -19.806340051647886  1.3749248940890308  -10.682339510334637  55.64073313245881  12.005267763697466  6.783085382032078  11.434213790061442  13.102596762570329  42.131184471768584  15.064301314007063  120.000000
8.257480000000001  0.000000  0.000000  0.000000  -19.31933768340392  1.0993951415264174  -12.367088205178648  55.6156982332713  12.417796031897236  7.690312028966644  13.373648265962135  16.076166196809467  38.9243808120867  14.191886836153396  120.000000
8.3111  0.000000  0.000000  0.000000  -18.925162274924954  0.8755899025588678  -14.013413828677896  55.8730719502666  12.993644876206487  8.781706597089023  14.614546693495553  19.534471769556795  36.018645503373556  13.383717743719581  120.000000
8.36472  0.000000  0.000000  0.000000  -18.649368147891792  0.6988749710745616  -15.632207992899637  56.46089364001343  13.74220758099249  10.063567899592469  15.141939323282676  23.479614155971323  33.445461328681816  12.697466107352511  120.000000
8.41834  0.000000  0.000000  0.000000  -18.51274002969177  0.5639172866972464  -17.24945372474203  57.3889383846626  14.684576648122405  11.531822853661584  15.06417859828619  27.865113641613846  31.183393341840738  12.145715041189716  120.000000
8.47196  0.000000  0.000000  0.000000  -18.521671265254955  0.46956526472321003  -18.88949447928815  58.62643050346305  15.842577993912231  13.151133063653669  14.556405629766703  32.59185096549412  29.209855965134686  11.708534518242045  120.000000
8.52558  0.000000  0.000000  0.000000  -18.66003049341074  0.4282447236689578  -20.558181160249976  60.10412170876594  17.22388247648048  14.856440495444435  13.848314869279402  37.52443922544275  27.466359847578595  11.35656751763817  120.000000
8.5792  0.000000  0.000000  0.000000  -18.889461016151632  0.4458359025808855  -22.227687264613248  61.70242644181151  18.81508797284513  16.567420438216754  13.182474499813157  42.52233926218816  25.85545674685555  11.06713099344979  120.000000
8.63282  0.000000  0.000000  0.000000  -19.161780778979452  0.5130726364416164  -23.837829548700835  63.26210437579767  20.57773311257667  18.19517594421031  12.748018179546685  47.45250949007396  24.272583291008218  10.829635621777856  120.000000
8.686440000000001  0.000000  0.000000  0.000000  -19.423947282285166  0.6284719534234426  -25.3133333541344  64.64895447446573  22.459580539014695  19.62464940422412  12.641646900984732  52.198225490321775  22.622217406269726  10.636902320796095  120.000000
8.74006  0.000000  0.000000  0.000000  -19.6383363113037  0.7951267838679249  -26.577653109921386  65.76408801016811  24.410680537573153  20.763362866967267  12.859555734656652  56.65712313309396  20.835203843627237  10.48359057434788  120.000000
8.79368  0.000000  0.000000  0.000000  -19.789437808606056  1.0056908137360938  -27.557651907393236  66.54806821212836  26.37262378711561  21.57740826734778  13.328327767477768  60.744871350748774  18.87322214670163  10.366634654515115  120.000000
8.8473  0.000000  0.000000  0.000000  -19.880510993830363  1.2419076072767226  -28.195193253629537  66.99974731944151  28.273591485176595  22.070980200903403  13.946583245381598  64.40292002415771  16.72917759125369  10.283675481599081  120.000000
8.90092  0.000000  0.000000  0.000000  -19.93102844933615  1.4805076603465308  -28.464327150823483  67.15209218982636  30.036049220229742  22.282965431252514  14.612785077184363  67.59852676356354  14.43152985944319  10.236127363867883  120.000000
8.95454  0.000000  0.000000  0.000000  -19.967768828103544  1.7008370659118204  -28.37443480216185  67.0612719227353  31.585091565048625  22.27274793638022  15.245367785858168  70.32717537432036  12.032034144977334  10.22366988175983  120.000000
9.00816  0.000000  0.000000  0.000000  -20.013595724946434  1.8943383737915434  -27.95548477984826  66.79665142949695  32.86224212162464  22.101954869901967  15.792762606993929  72.60806663027293  9.601835136738142  10.243390510131187  120.000000
9.06178  0.000000  0.000000  0.000000  -20.081576661321844  2.067578199448999  -27.251569479776  66.42785486605085  33.838533651976476  21.825218826334172  16.232392573970596  74.4767494293724  7.225657531688996  10.285238475551083  120.000000
9.115400000000001  0.000000  0.000000  0.000000  -20.17764939258592  2.2355511879375407  -26.31361435703026  66.01273812284602  34.51360605095302  21.487550595095016  16.565205520126113  75.97630186303887  4.994629041544922  10.333547616269472  120.000000
9.16902  0.000000  0.000000  0.000000  -20.30412304164109  2.4109728114949758  -25.192026681146466  65.59651709484343  34.90531263939266  21.117212229967958  16.808027711478015  77.1539549318586  2.99513823614781  10.37030157943164  120.000000
9.22264  0.000000  0.000000  0.000000  -20.45945261317722  2.597969126982774  -23.939715213999044  65.21639503039926  35.04091763715609  20.73004489627006  16.98362160083096  78.05594018000939  1.2978356086188914  10.381782129140975  120.000000
9.27626  0.000000  0.000000  0.000000  -20.63639267171938  2.7931257147404174  -22.61946495807945  64.90606157612848  34.95329906939198  20.337890800390362  17.113533859296563  78.71890222793381  -0.050170325507170974  10.36463219206117  120.000000
9.32988  0.000000  0.000000  0.000000  -20.81948955956539  2.9870392148849056  -21.30548989276485  64.69930545873314  34.67606527631865  19.951190699010365  17.215324176880205  79.16780229548843  -1.0284813642986201  10.326862228664  120.000000
9.3835  0.000000  0.000000  0.000000  -20.986903333427726  3.1654620247789254  -20.078291768970008  64.62667455275253  34.24069194899039  19.580185095900614  17.30277405813817  79.41525266897312  -1.6361302705250054  10.283424599592797  120.000000
9.43712  0.000000  0.000000  0.000000  -21.1150948066115  3.313324263039647  -19.01817952117778  64.70894288753031  33.67677977566881  19.235514431036044  17.386461225120982  79.4613240433333  -1.8819998314200752  10.24732571599136  120.000000
9.49074  0.000000  0.000000  0.000000  -21.18651313809225  3.4176752315347714  -18.19406120767793  64.94715672384656  33.01605976567757  18.932435568804646  17.475581962607137  79.28343749246807  -1.7763667903017768  10.221620318170322  120.000000
9.544360000000001  0.000000  0.000000  0.000000  -21.193200638291028  3.469711392887034  -17.657783932305446  65.3197235655799  32.293073298024645  18.690581561667134  17.57834625711853  78.83550520704742  -1.3269086318134262  10.196472729233646  120.000000
9.59798  0.000000  0.000000  0.000000  -21.135404495579344  3.462778826071234  -17.445546380164526  65.78618789616124  31.538817508135697  18.53013784849458  17.698569116427414  78.0619275097068  -0.5360452561615905  10.153935553935161  120.000000
9.6516  0.000000  0.000000  0.000000  -21.01827755771458  3.3906570689817874  -17.579464787521065  66.29157579117387  30.775506707492056  18.469023231433614  17.83267492063303  76.90761793582342  0.5955440384195747  10.078986458507634  120.000000
9.70522  0.000000  0.000000  0.000000  -20.85099140082523  3.249791368532061  -18.06520652126116  66.76865600780229  30.01493096016355  18.517811526431956  17.965412851543185  75.32042697994964  2.063357688255021  9.970403007978053  120.000000
9.75884  0.000000  0.000000  0.000000  -20.64852452570114  3.038102632212824  -18.8890494735618  67.13575742357123  29.259896695896593  18.680361854311297  18.068136095211194  73.2528315484199  3.8554177163109293  9.847519669151549  120.000000
9.81246  0.000000  0.000000  0.000000  -20.42852816579954  2.7597117724219142  -20.012415480522513  67.30484140538961  28.512829217750227  18.947114626794658  18.1042780795372  70.66898581648171  5.95156285321453  9.746846255182769  120.000000
9.86608  0.000000  0.000000  0.000000  -20.20990472508125  2.4274948701907912  -21.36775338067279  67.1930725467559  27.78763646340302  19.291136499460926  18.038628783740926  67.54808826361395  8.325504547632612  9.714292224924751  120.000000
9.9197  0.000000  0.000000  0.000000  -20.009250580582957  2.0650097881155585  -22.86089867710497  66.73765973530297  27.115361454561626  19.663347832440884  17.84374988583737  63.892158178590286  10.949712485303316  9.795073470828855  120.000000
